<svg width="100" height="100" viewBox="0 0 100 100" fill="none" xmlns="http://www.w3.org/2000/svg">
  <path d="M100 50C100 77.6142 77.6142 100 50 100C22.3858 100 0 77.6142 0 50C0 22.3858 22.3858 0 50 0C77.6142 0 100 22.3858 100 50Z" fill="#F50057" />
  <path d="M36.5484 20V30.77H41.1568L40.2532 35.2047H36.5484V67.6053C36.5484 71.2859 37.7833 73.3675 40.2532 73.8502V75.8412L31.1266 81C29.8013 80.457 28.5663 79.5821 27.4217 78.3754C26.2772 77.1083 25.7049 75.9317 25.7049 74.8457V35.2953H22L22.9036 31.4941C24.7109 31.4941 26.8796 30.2873 29.4097 27.8739C32.0001 25.4001 33.5363 22.7755 34.0182 20H36.5484Z" fill="white" />
  <path d="M73.5722 41.3591V66.9718C73.5722 69.2043 73.9337 70.773 74.6566 71.678C75.3795 72.5227 76.494 73.1261 78 73.4881V75.4792L68.1505 81C66.8252 80.457 65.5902 79.5821 64.4456 78.3754C63.3011 77.1083 62.7288 75.9619 62.7288 74.9362L51.4334 81C51.2527 80.8793 50.9816 80.7285 50.6202 80.5475C50.2587 80.3061 49.6262 79.8536 48.7226 79.1899C47.8792 78.4659 47.1262 77.7117 46.4635 76.9273C44.6563 74.9362 43.7526 72.6736 43.7526 70.1395V55.2967C43.7526 54.3314 45.3189 53.0945 48.4515 51.5861C51.584 50.0776 54.7166 48.8408 57.8492 47.8754L62.6384 46.3368C62.6384 42.8976 61.7348 40.5143 59.9275 39.1869C58.1203 37.7992 54.6263 37.1053 49.4455 37.1053V34.3902C58.7829 31.0717 64.0239 29.4125 65.1685 29.4125C67.1565 29.4125 69.0541 30.7097 70.8614 33.3042C72.6686 35.8986 73.5722 38.5836 73.5722 41.3591ZM54.5961 66.8813C54.5961 68.4501 55.0479 69.7473 55.9516 70.773C56.9154 71.7384 57.9697 72.2211 59.1143 72.2211C60.2588 72.2211 61.4637 71.7685 62.7288 70.8635V50.4095C61.2227 50.9525 60.0781 51.405 59.295 51.7671C58.5721 52.1291 57.7889 52.7023 56.9456 53.4866C55.3793 54.9347 54.5961 57.4387 54.5961 60.9985V66.8813Z" fill="white" />
</svg>
  